<svg width="400" height="400" viewBox="0 0 400 400" fill="none" xmlns="http://www.w3.org/2000/svg">
<path d="M74.6792 60.1001C74.509 60.1049 74.3468 60.1732 74.2246 60.2917C74.1024 60.4102 74.0291 60.5702 74.0192 60.7402C73.3192 73.7002 73.4392 76.0201 73.7392 76.0401C74.3992 76.0401 75.3192 62.1601 75.3592 61.4601C75.8792 61.4601 91.9992 60.8001 91.9792 60.0401C91.9992 59.6201 74.8792 60.1001 74.6792 60.1001ZM194.359 56.2001C194.285 56.2001 194.214 56.2296 194.161 56.2822C194.109 56.3347 194.079 56.4059 194.079 56.4801C194.079 56.5544 194.109 56.6256 194.161 56.6781C194.214 56.7306 194.285 56.7601 194.359 56.7601C200.959 57.2201 202.219 57.3801 210.659 57.5401C210.659 58.1801 210.799 73.6401 211.479 73.6401C212.159 73.6401 211.759 73.6401 212.059 56.8401C211.999 55.6001 209.839 56.0001 194.359 56.2001ZM357.999 114.42C357.999 115.14 358.139 131.2 358.839 131.18C359.539 131.16 359.419 118.22 359.419 118.02C359.419 112.02 360.539 113.02 353.779 112.92C338.999 112.74 335.399 114 357.999 114.42ZM356.659 186.12C356.659 183.66 356.479 181.84 356.479 181.84C356.479 181.766 356.45 181.695 356.397 181.642C356.345 181.59 356.273 181.56 356.199 181.56C356.125 181.56 356.054 181.59 356.001 181.642C355.949 181.695 355.919 181.766 355.919 181.84C355.619 187.84 355.439 189.06 355.359 198.34C348.839 198.46 346.359 198.66 343.739 198.82L339.619 199.12C339.583 199.12 339.548 199.127 339.515 199.142C339.482 199.156 339.452 199.177 339.428 199.203C339.403 199.23 339.385 199.261 339.373 199.295C339.361 199.328 339.356 199.364 339.359 199.4C339.359 199.474 339.389 199.546 339.441 199.598C339.494 199.651 339.565 199.68 339.639 199.68H343.759C356.979 199.96 356.759 199.68 356.759 198.94C356.739 195.24 356.879 193.12 356.659 186.12ZM231.999 114.42C250.219 114.04 255.059 112.68 236.219 112.92C229.479 112.92 230.579 111.94 230.579 118.02C230.579 135.2 231.779 137.2 231.999 114.42ZM229.419 198.32C229.219 176.64 227.999 176.32 227.999 194.72C227.999 198.04 227.659 199.68 228.699 199.7C228.899 199.7 245.399 200.1 245.419 199.38C245.439 198.66 237.199 198.48 229.419 198.32ZM208.139 141C200.139 141 191.559 141.16 191.559 141.66C191.559 142.16 203.559 142.38 203.719 142.38C210.639 142.38 209.499 143.46 209.719 137.6C209.999 119.1 208.799 120.86 208.139 141ZM69.2392 142.5C69.9992 133.88 69.9792 132.62 70.2392 126.8C70.2392 126.726 70.2097 126.655 70.1571 126.602C70.1046 126.55 70.0334 126.52 69.9592 126.52C69.8849 126.52 69.8137 126.55 69.7612 126.602C69.7087 126.655 69.6792 126.726 69.6792 126.8C67.4392 143.32 67.4792 143.98 68.4792 143.96C68.6792 143.96 85.7792 143.74 85.7592 143C85.7592 142.6 80.2392 142.32 69.2392 142.5ZM95.5192 20.4001L89.0992 22.6401L95.4992 24.6201L95.5192 20.4001ZM101.239 20.4001V24.6201L107.919 22.6401L101.239 20.4001Z" fill="#AA193D"/>
<path d="M242 122.66C242.26 129.9 241.42 131.6 242.7 131.6C325.32 131.38 350.46 131.74 350.46 130.9C350.3 122.9 350.66 122.38 350.12 122.38C234.84 121.6 242 121.7 242 122.66V122.66ZM349.84 122.94V130.56C317.7 130.32 291.22 130.16 243.46 130.2V123.36C283.44 123.36 309.82 123.26 350 122.94H349.84ZM242.78 152.5C281.14 152.5 264.28 152.68 350.2 152.14C350.245 152.143 350.29 152.136 350.333 152.12C350.376 152.104 350.414 152.079 350.446 152.047C350.479 152.015 350.504 151.976 350.52 151.934C350.536 151.891 350.542 151.846 350.54 151.8V143.56C350.54 143.18 353.34 143.16 296.54 142.94C238.54 142.72 242.12 142.6 242.12 143.56V151.8C242.119 151.979 242.187 152.151 242.31 152.281C242.433 152.412 242.601 152.49 242.78 152.5V152.5ZM350 143.84V151.46C314.6 151.2 289.86 151.06 243.62 151.1V144.26C282.58 144.26 310.84 144.16 350 143.84ZM242.78 172.4C266.08 172.4 350.54 172.4 350.54 171.7V163.44C350.534 163.364 350.501 163.293 350.445 163.241C350.389 163.189 350.316 163.16 350.24 163.16C253.1 162.56 262.46 162.82 242.82 162.74C242.634 162.74 242.456 162.814 242.325 162.945C242.193 163.076 242.12 163.254 242.12 163.44V171.7C242.119 171.879 242.187 172.051 242.31 172.181C242.433 172.312 242.601 172.39 242.78 172.4V172.4ZM350 163.74V171.34C312.88 171.08 288.92 170.94 243.62 170.98V164.14C280.68 164.14 312.54 164 350 163.74V163.74ZM350.5 183.34C350.5 183.301 350.492 183.262 350.477 183.225C350.462 183.189 350.44 183.156 350.412 183.128C350.384 183.1 350.351 183.078 350.314 183.063C350.278 183.048 350.239 183.04 350.2 183.04C236.38 182.56 242.08 182.14 242.08 183.34C242.34 190.58 241.5 192.28 242.78 192.28C308.1 192.08 214.3 192.66 350.2 191.92C350.86 192 350.4 191.24 350.5 183.34V183.34ZM349.88 191.34C316.28 191.08 290.42 190.94 243.5 190.98V184C280.1 184 308.94 184 349.94 183.58L349.88 191.34ZM338.86 293.04L332.06 300.12L337.2 300.26L343.98 293.18L338.86 293.04V293.04ZM330.9 292.8L324.12 299.88L329.24 300.02L336.04 292.96L330.9 292.8V292.8ZM346.8 293.26L340 300.34L345.14 300.48L351.94 293.42L346.8 293.26V293.26ZM362.7 293.72L355.9 300.8L361.04 300.94L367.82 293.88L362.7 293.72V293.72Z" fill="#19AA86"/>
<path d="M388.8 294.28L365.88 252H381.12C381.201 251.995 381.278 251.959 381.334 251.9C381.389 251.84 381.42 251.762 381.42 251.68C381.42 251.68 381.42 196.42 381.6 141.14C381.6 140.9 381.76 30.6001 381.6 30.3801V24.0001C381.603 22.7938 381.367 21.5989 380.907 20.4839C380.446 19.369 379.77 18.3559 378.917 17.503C378.064 16.65 377.051 15.9739 375.936 15.5135C374.821 15.0531 373.626 14.8175 372.42 14.8201H44.3601C41.9245 14.8198 39.5877 15.7833 37.8601 17.5001C33.8601 21.5001 35.5601 25.8801 35.1801 30.1001C34.9001 30.4601 35.1801 20.4401 35.1801 251.62C35.1774 251.706 35.192 251.791 35.223 251.871C35.2539 251.951 35.3006 252.024 35.3603 252.086C35.42 252.147 35.4915 252.196 35.5705 252.23C35.6495 252.263 35.7344 252.28 35.8201 252.28H92.1201C92.1201 258.8 92.1201 264.28 91.7801 267.36C90.5801 278.64 71.7801 323.12 71.7801 323.12L73.9001 324.48C71.6121 326.386 69.6233 328.624 68.0001 331.12C67.7201 331.94 68.0001 332.34 68.6801 333.12C73.7601 338.94 91.0801 352.9 89.7001 344.64C89.0601 340.78 83.2401 333.32 80.7601 330.32C81.0165 330.034 81.238 329.718 81.4201 329.38L82.6201 330.14C82.6201 330.14 107.5 294.8 114.1 282.94C118.233 275.278 120.912 266.917 122 258.28C123.46 283.86 123.14 343.16 123.14 343.16H125.14C124.76 345.16 123.84 350.26 124.38 352.18C124.62 353.02 125.1 353.16 126.06 353.38C129.96 354.3 149.84 356.62 150.7 352.64C151.56 348.66 138 345.04 134.22 344C134.22 343.2 134.38 342.82 134.06 342.7C142.8 315.82 148.84 280.7 152.72 252.06H205.3L317.8 251.88L295.64 291.88C294.818 293.332 294.384 294.972 294.38 296.64C294.375 298.309 294.8 299.95 295.614 301.407C296.428 302.864 297.603 304.086 299.026 304.957C300.449 305.828 302.073 306.318 303.74 306.38L309.64 306.62C308.12 345.52 308.68 343.7 309.34 343.76L313 344.04C313.92 344.04 314.22 345.9 313.56 306.76C334.54 307.56 340.66 307.8 367.1 308.76C366.98 312.44 366.68 322.48 366.52 328.44C366.02 350.24 365.96 349.34 366.82 349.42L370.46 349.7C371.24 349.7 371.78 352.46 371.02 308.9C379.4 309.2 381.5 309.72 384.68 308.02C385.867 307.403 386.917 306.554 387.77 305.523C388.623 304.493 389.26 303.302 389.644 302.021C390.028 300.74 390.151 299.395 390.006 298.065C389.861 296.735 389.451 295.448 388.8 294.28ZM80.1401 330.1C79.9401 330.36 80.1401 330.44 80.9801 331.68C80.1931 331.783 79.4343 332.041 78.7476 332.439C78.061 332.838 77.4602 333.368 76.9801 334C76.9409 334.016 76.9058 334.041 76.8776 334.073C76.8493 334.104 76.8286 334.142 76.8171 334.183C76.8055 334.224 76.8034 334.266 76.8108 334.308C76.8182 334.35 76.8351 334.389 76.86 334.424C76.885 334.458 76.9174 334.486 76.9548 334.506C76.9922 334.526 77.0337 334.537 77.0761 334.539C77.1185 334.54 77.1607 334.532 77.1995 334.515C77.2383 334.498 77.2727 334.472 77.3001 334.44C78.849 334.092 80.303 333.41 81.5601 332.44C81.8401 332.82 82.1401 333.28 82.4801 333.76C81.7142 333.837 80.9736 334.076 80.3079 334.463C79.6421 334.849 79.0667 335.373 78.6201 336C78.5899 336.021 78.5641 336.048 78.5443 336.079C78.5244 336.11 78.5108 336.144 78.5043 336.181C78.4912 336.254 78.5077 336.329 78.5501 336.39C78.5925 336.451 78.6575 336.493 78.7306 336.506C78.8037 336.519 78.8791 336.503 78.9401 336.46C80.4093 336.109 81.778 335.425 82.9401 334.46C83.1801 334.82 83.4401 335.2 83.6801 335.6C82.9522 335.686 82.2521 335.931 81.6298 336.318C81.0075 336.705 80.4784 337.225 80.0801 337.84C80.0499 337.862 80.0244 337.89 80.005 337.923C79.9857 337.955 79.9728 337.991 79.9673 338.028C79.9617 338.065 79.9635 338.103 79.9726 338.139C79.9816 338.176 79.9978 338.21 80.0201 338.24C80.0424 338.27 80.0705 338.296 80.1027 338.315C80.1349 338.335 80.1705 338.347 80.2077 338.353C80.2448 338.359 80.2827 338.357 80.3192 338.348C80.3556 338.339 80.3899 338.322 80.4201 338.3C84.8201 336.46 83.4401 336.8 84.2201 336.4C85.0201 337.68 89.4401 344.74 88.2201 345.76C88.1283 345.784 88.0319 345.784 87.9401 345.76C84.2401 345.62 68.8001 332.26 68.9801 331.48C69.3401 329.96 73.1201 325.8 74.1801 324.66L80.9601 329C80.8201 329.2 80.8601 329.24 80.1401 330.1ZM135.2 345.08C134.599 345.625 134.112 346.284 133.769 347.019C133.426 347.754 133.232 348.55 133.2 349.36C133.191 349.425 133.204 349.49 133.238 349.546C133.272 349.602 133.324 349.644 133.386 349.666C133.447 349.687 133.514 349.686 133.575 349.663C133.637 349.64 133.688 349.597 133.72 349.54C134.771 348.334 135.549 346.915 136 345.38L137.52 345.92C136.954 346.42 136.501 347.036 136.194 347.726C135.887 348.416 135.732 349.165 135.74 349.92C135.716 349.992 135.722 350.07 135.756 350.137C135.789 350.205 135.848 350.256 135.92 350.28C135.992 350.304 136.07 350.298 136.137 350.265C136.205 350.231 136.256 350.172 136.28 350.1C137.227 348.964 137.91 347.632 138.28 346.2L139.56 346.7C138.919 347.213 138.451 347.912 138.22 348.7C137.996 349.3 137.894 349.94 137.92 350.58C137.899 350.652 137.907 350.729 137.943 350.794C137.978 350.86 138.038 350.909 138.11 350.93C138.182 350.951 138.259 350.943 138.324 350.908C138.39 350.872 138.439 350.812 138.46 350.74C141.12 346.46 139.98 347.9 140.46 347C141.86 347.56 149.54 350.74 149.2 352.22C148.76 354.42 125.64 352.76 125.2 351.82C124.62 350.36 125.2 344.6 125.5 343.02H133.5C133.66 344.84 133.02 344.34 135.2 345.08ZM126.8 19.0001H368.62C369.522 19.0158 370.382 19.3852 371.014 20.0286C371.646 20.672 372 21.538 372 22.4401C372 23.3524 371.638 24.2274 370.993 24.8725C370.347 25.5177 369.472 25.8801 368.56 25.8801H126.8C125.888 25.8801 125.013 25.5177 124.368 24.8725C123.723 24.2274 123.36 23.3524 123.36 22.4401C123.46 22.2201 123.54 19.0001 126.8 19.0001ZM98.4401 19.0001H107.58C108.032 19.0001 108.479 19.0891 108.897 19.2619C109.314 19.4348 109.693 19.6882 110.013 20.0076C110.332 20.3271 110.585 20.7063 110.758 21.1237C110.931 21.541 111.02 21.9883 111.02 22.4401C111.005 23.3476 110.637 24.2137 109.995 24.8555C109.354 25.4973 108.488 25.8647 107.58 25.8801H98.4401C98.4401 25.8801 98.4401 25.6201 98.5401 25.1801C98.8005 23.1258 98.7668 21.0449 98.4401 19.0001ZM88.9201 19.0001H98.0001C97.6027 21.2762 97.6027 23.604 98.0001 25.8801H88.9201C88.0078 25.8801 87.1328 25.5177 86.4877 24.8725C85.8425 24.2274 85.4801 23.3524 85.4801 22.4401C85.4801 21.5277 85.8425 20.6528 86.4877 20.0076C87.1328 19.3625 88.0078 19.0001 88.9201 19.0001ZM72.9201 19.0001C73.8415 19.0683 74.7029 19.4825 75.3316 20.1595C75.9603 20.8365 76.3097 21.7262 76.3097 22.6501C76.3097 23.574 75.9603 24.4637 75.3316 25.1407C74.7029 25.8177 73.8415 26.2318 72.9201 26.3001C71.9985 26.2344 71.1359 25.8226 70.5053 25.1473C69.8747 24.4721 69.5228 23.5833 69.5203 22.6594C69.5178 21.7355 69.8648 20.8448 70.4916 20.1661C71.1185 19.4873 71.9789 19.0708 72.9001 19.0001H72.9201ZM59.9001 19.0001C60.8215 19.0683 61.6829 19.4825 62.3116 20.1595C62.9403 20.8365 63.2897 21.7262 63.2897 22.6501C63.2897 23.574 62.9403 24.4637 62.3116 25.1407C61.6829 25.8177 60.8215 26.2318 59.9001 26.3001C58.9785 26.2344 58.1159 25.8226 57.4853 25.1473C56.8547 24.4721 56.5028 23.5833 56.5003 22.6594C56.4978 21.7355 56.8448 20.8448 57.4716 20.1661C58.0985 19.4873 58.9589 19.0708 59.8801 19.0001H59.9001ZM46.8601 19.0001C47.7815 19.0683 48.6429 19.4825 49.2716 20.1595C49.9003 20.8365 50.2497 21.7262 50.2497 22.6501C50.2497 23.574 49.9003 24.4637 49.2716 25.1407C48.6429 25.8177 47.7815 26.2318 46.8601 26.3001C45.9385 26.2344 45.0759 25.8226 44.4453 25.1473C43.8147 24.4721 43.4628 23.5833 43.4603 22.6594C43.4578 21.7355 43.8048 20.8448 44.4316 20.1661C45.0585 19.4873 45.9189 19.0708 46.8401 19.0001H46.8601ZM205.32 251.16H152.88C156.28 225.82 157.96 205.84 158.3 201.7C159.34 201.7 159.5 181.34 158.76 170.66C169.98 179.42 179.58 178.34 187.68 168.44C193.38 161.48 196.48 152.7 198.92 151.56C201.76 150.22 202.92 149.82 203.92 148.06C213.36 148.06 213.92 148.42 213.92 147.78C213.92 147.78 214.86 116.88 215.62 90.1401C216.78 50.2601 217.08 51.0201 216.02 51.0401C216.02 51.0401 179.12 51.7001 142.24 52.4001L68.4401 53.8401C68.2735 53.8496 68.1162 53.9201 67.9982 54.0381C67.8801 54.1562 67.8097 54.3135 67.8001 54.4801C67.8001 54.4801 66.9001 72.4801 65.9001 92.8201C64.6001 119.52 63.1601 150.34 63.1601 150.34C63.1629 150.436 63.1982 150.527 63.2601 150.6C63.3441 150.631 63.4361 150.631 63.5201 150.6H78.5201C78.6401 151.06 78.7601 151.5 78.8401 151.76C75.7624 154.812 73.4228 158.526 72.0001 162.62C68.1801 173.38 74.0001 179.98 92.8801 168.42C90.3201 186.54 91.3801 201.38 92.0601 201.6C91.1801 213.12 91.9001 234.42 92.0601 250.4H36.4001V31.2601H380.4C380.4 37.3801 380.4 89.2601 380.52 141.26C380.52 194.14 380.22 246.38 380.22 250.88H365.46C351.04 225.1 350.36 219.08 342.02 219.02C340.249 219.019 338.51 219.489 336.98 220.38C334 222.12 334.48 221.96 321.96 244.48L318.6 250.48C314.92 250.4 263.16 251.24 205.3 251.16H205.32ZM204 147.38C203.4 146.76 204.18 147.18 199.46 147.06C201.12 142.78 198.28 141.88 195.46 147.36C188.137 146.825 180.784 146.825 173.46 147.36C169.081 142.634 164.122 138.481 158.7 135C155.218 132.788 151.519 130.938 147.66 129.48C144.787 128.37 141.823 127.513 138.8 126.92V121.28C139.784 121.009 140.726 120.606 141.6 120.08C143.125 119.168 144.375 117.863 145.22 116.3C146.435 113.819 146.787 111.004 146.22 108.3L148.5 106.58C148.592 106.514 148.667 106.427 148.72 106.326C148.772 106.225 148.799 106.114 148.8 106C148.816 105.913 148.813 105.824 148.793 105.738C148.772 105.651 148.734 105.571 148.68 105.5L146.48 102.68C145.68 101.64 144.74 100.48 143.88 99.4201L141.88 96.9601L152.3 90.6801C152.427 90.5996 152.525 90.4803 152.579 90.3398C152.633 90.1993 152.641 90.0451 152.6 89.9001C152.56 89.7557 152.474 89.6285 152.355 89.5381C152.236 89.4477 152.09 89.3992 151.94 89.4001C150.443 89.4092 148.947 89.5027 147.46 89.6801C146.117 89.8152 144.781 90.0222 143.46 90.3001C140.074 86.5277 135.715 83.7599 130.86 82.3001C128.34 81.6347 125.711 81.483 123.131 81.854C120.55 82.2251 118.071 83.1114 115.84 84.4601C113.849 85.4834 112.133 86.9691 110.835 88.7925C109.537 90.616 108.695 92.7241 108.38 94.9401C108.032 97.5477 108.202 100.198 108.88 102.74C109.858 106.512 111.446 110.1 113.58 113.36C113.632 113.408 113.7 113.434 113.77 113.434C113.841 113.434 113.908 113.408 113.96 113.36L116.32 111.98C117.784 114.736 120.099 116.946 122.92 118.28C121.178 120.974 119.831 123.904 118.92 126.98C116.131 127.491 113.374 128.158 110.66 128.98C98.3801 132.78 87.9001 139.78 81.2001 150.52C80.2201 145.54 77.7801 146.24 78.5001 149.76L64.0001 150C64.2001 146.46 65.8201 117.86 67.1801 92.8801C68.1801 74.7201 69.0401 58.4601 69.1801 55.1601L142.36 53.8201L215.44 52.4001C215.44 55.9001 214.96 72.0601 214.56 90.1201C214 115.22 213.4 144 213.32 147.42L204 147.38ZM116.18 102.96C116.666 105.395 117.452 107.759 118.52 110L114 112.96C112.42 110.4 108.3 102.48 109.54 95.2601C109.886 93.2325 110.705 91.3152 111.932 89.6644C113.159 88.0135 114.758 86.6758 116.6 85.7601C118.683 84.5105 120.994 83.6898 123.398 83.3464C125.802 83.0029 128.251 83.1436 130.6 83.7601C135.292 85.1614 139.498 87.8497 142.74 91.5201C142.82 91.6198 142.925 91.6952 143.046 91.7377C143.166 91.7801 143.296 91.7879 143.42 91.7601C144.94 91.4401 146.42 91.2201 147.7 91.0801L149.36 90.9201L139.36 97.1001C137.897 95.2094 136.197 93.5154 134.3 92.0601C132.899 90.993 131.349 90.1372 129.7 89.5201C128.279 88.9755 126.756 88.7505 125.239 88.8611C123.721 88.9717 122.247 89.4152 120.92 90.1601C119.551 90.9152 118.388 91.9931 117.53 93.3001C116.673 94.6072 116.148 96.1039 116 97.6601C115.798 99.426 115.859 101.212 116.18 102.96ZM117.3 102.8C117.071 101.155 117.071 99.4855 117.3 97.8401C117.438 96.518 117.892 95.2485 118.623 94.1382C119.353 93.028 120.34 92.1095 121.5 91.4601C122.653 90.8092 123.934 90.4182 125.254 90.3146C126.573 90.2109 127.9 90.3971 129.14 90.8601C130.695 91.3791 132.169 92.1128 133.52 93.0401C135.421 94.3118 137.166 95.802 138.72 97.4801L136.38 98.9201L125.02 106L119.02 109.76C118.189 107.512 117.612 105.177 117.3 102.8ZM123.58 118.64C124.483 118.815 125.417 118.738 126.28 118.42C131.84 116.42 130.52 113.26 130.52 113.26C130.52 113.26 124.42 114.66 125.4 110.42C126.38 106.18 131.4 110.42 131.4 110.42L133.4 109.56C132.331 107.621 131.703 105.47 131.56 103.26L137.02 100L141.36 97.4201L143.48 100.58C144.3 101.78 145.18 103.06 145.92 104.1C146.44 104.84 146.88 105.46 147.2 105.88C145.46 107.3 144.66 107.4 144.8 108.14C145.407 110.664 145.124 113.32 144 115.66C143.277 117.019 142.216 118.169 140.92 119C140.061 119.565 139.125 120.003 138.14 120.3C138.013 120.328 137.9 120.399 137.82 120.501C137.739 120.603 137.697 120.73 137.7 120.86L138.18 126.86C135.316 126.298 132.398 126.057 129.48 126.14C126.242 126.221 123.013 126.535 119.82 127.08C121.48 124.466 122.747 121.623 123.58 118.64ZM129.58 127.5C135.629 127.449 141.632 128.562 147.26 130.78C151.043 132.199 154.68 133.981 158.12 136.1C157.28 137.36 155.48 141.02 155.34 148.96C155.313 152.445 155.534 155.927 156 159.38C156.38 162.42 156.96 165.8 157.76 169.6L158 170C158 170.72 158 172 157.88 174C136.658 178.71 114.662 178.71 93.4401 174C94.0401 168.98 94.7801 164 95.5801 159.54C96.8201 152.5 99.0401 141.78 100.92 134.48C104.129 132.855 107.476 131.517 110.92 130.48C116.975 128.669 123.243 127.667 129.56 127.5H129.58ZM157.18 159.24C156.669 155.863 156.389 152.455 156.34 149.04C156.34 141.2 157.96 137.64 158.7 136.46C174.2 146.16 180 157.24 180.8 156.58C181.1 156.36 180.96 156.24 178.8 153.52C183.995 151.895 189.277 150.559 194.62 149.52C195.88 150.12 196.76 150.24 197.38 150.96C193.64 154.5 189.52 167.56 180.26 173.2C173.6 177.2 164.94 174 159.02 169.08C158.18 165.44 157.58 162.16 157.16 159.24H157.18ZM174.14 148C181.092 148.471 188.068 148.471 195.02 148C193.84 149.44 186.92 149.52 178.44 153C177.042 151.304 175.608 149.637 174.14 148ZM195.82 148.64C196.26 148.12 197.82 145.06 198.84 144.64C198.713 145.606 198.429 146.545 198 147.42C197.32 148.86 200.88 148.1 202.12 148.32C200.917 149.089 199.653 149.758 198.34 150.32C198 149.88 197.84 148.92 195.82 148.68V148.64ZM79.3201 149.54C79.1722 149.061 79.1312 148.556 79.2001 148.06C79.8001 148.06 80.5001 150.76 80.6601 151.46C75.7201 159.72 77.3001 159.78 77.5201 159.22C81.94 148.622 90.0259 139.968 100.3 134.84C97.8176 142.861 95.8141 151.022 94.3001 159.28C93.8001 161.96 93.3401 164.76 92.9201 167.64C80.2401 174.56 68.5001 176.72 73.2201 163.08C74.4819 159.626 76.2917 156.398 78.5801 153.52C80.7201 151.74 79.8601 151.88 79.3201 149.58V149.54ZM123.84 186.16C135.322 186.016 146.743 184.451 157.84 181.5V187.5C127.08 195.96 97.0001 188.52 92.4401 186.72C92.5401 184.98 92.6801 182.9 92.8601 180.84C102.748 184.591 113.267 186.398 123.84 186.16ZM157.84 194.9C157.84 196.16 157.96 199.56 158 200.9C120.16 208.9 94.0001 200.22 92.2401 199.64V193.82C116.4 202 132.84 200.38 158 194.9H157.84ZM312.3 342.54L310.06 342.38C310.24 328.06 310.28 321.42 310.18 306.6H312.78C312.56 316.94 312.38 327.12 312.36 342.54H312.3ZM369.76 348.16L367.52 347.98C367.68 335.98 367.76 323.56 367.64 308.7L370.26 308.8C370 324.38 369.88 332.72 369.82 348.16H369.76ZM383.98 306.76C380.52 308.62 385.02 307.84 303.7 305.56C302.149 305.511 300.637 305.064 299.308 304.262C297.979 303.461 296.879 302.331 296.112 300.982C295.345 299.633 294.938 298.11 294.929 296.558C294.92 295.006 295.309 293.478 296.06 292.12C303.02 279.9 313.6 261.34 322.9 244.92C335.18 223.3 334.9 223.04 337.62 221.42C338.97 220.641 340.502 220.233 342.06 220.24C349.88 220.24 348.54 223.68 387.52 294.94C388.065 295.947 388.407 297.052 388.525 298.191C388.643 299.33 388.535 300.482 388.208 301.579C387.882 302.677 387.342 303.699 386.62 304.588C385.898 305.477 385.007 306.215 384 306.76H383.98Z" fill="black"/>
<path d="M371.799 301.26L376.939 301.4L383.719 294.32L378.579 294.18L371.799 301.26ZM370.639 293.94L363.859 301.02L368.979 301.16L375.779 294.1L370.639 293.94V293.94ZM354.739 293.5L347.959 300.56L353.079 300.72L359.879 293.64L354.739 293.5V293.5ZM347.979 242.16L354.339 234.72L349.219 234.86L342.839 242.32L347.979 242.16ZM338.459 235.18L333.319 235.32L326.939 242.78L332.079 242.62L338.459 235.18ZM340.779 274.18L350.059 285.38L353.499 281.94L344.419 271.44L340.779 274.18ZM340.019 242.4L346.399 234.94L341.259 235.1L334.899 242.56L340.019 242.4ZM322.959 292.58L316.159 299.66L321.299 299.8L328.079 292.72L322.959 292.58V292.58Z" fill="#19AA86"/>
<path d="M348.539 261.78L331.179 274.88C331.059 275.32 323.559 270.88 322.279 281.1L328.459 277.1L330.839 280.62L324.999 284.8C324.999 284.8 333.819 287.98 333.999 278.34L351.359 265.26C351.479 264.82 358.979 269.26 360.259 259.04L354.079 263.04L351.699 259.52L357.539 255.32C357.539 255.32 348.719 252.16 348.539 261.78V261.78ZM307.059 292.12L300.279 299.2L305.399 299.34L312.199 292.26L307.059 292.12V292.12ZM314.999 292.36L308.219 299.42L313.359 299.58L320.139 292.5L314.999 292.36V292.36Z" fill="#AA193D"/>
<path d="M324.82 265.76L328.82 262.34L329.06 260.46L329.96 261.34L336.72 269.48L340.22 266.78L333.36 257.76C334.89 256.775 336.619 256.138 338.424 255.896C340.228 255.654 342.063 255.813 343.8 256.36C343.669 255.705 343.447 255.073 343.14 254.48C339.535 252.71 335.386 252.402 331.56 253.62L323.78 258.68L321.08 260.8C321.279 261.859 321.721 262.857 322.369 263.718C323.018 264.578 323.857 265.277 324.82 265.76ZM56.3796 368.96C44.3796 313.3 44.7996 315.66 42.5996 314.36C41.2449 313.66 39.7183 313.362 38.1996 313.5C37.0924 313.404 35.9777 313.559 34.9388 313.954C33.8998 314.348 32.9635 314.973 32.1996 315.78C31.8796 316.22 25.1996 358.3 23.6196 368.5C17.4196 368.5 17.1996 368.26 17.0196 368.7L9.99963 384.32C9.94493 384.411 9.91602 384.514 9.91602 384.62C9.91602 384.726 9.94493 384.83 9.99963 384.92C10.0562 385.006 10.1333 385.077 10.2241 385.126C10.3149 385.175 10.4165 385.2 10.5196 385.2H43.0996L58.2996 385.1C64.7196 385.1 65.5396 385.24 65.4196 384.32L63.0796 369.38C63.0796 368.66 62.3996 369.08 56.3796 368.96ZM35.2996 315.42C37.6396 314.56 41.6596 314.5 43.0396 316.72C42.5396 316.72 43.2996 318.5 38.0796 318.16C37.3196 318.16 34.1996 317.76 34.0796 317.02C33.9596 316.28 35.7196 315.88 35.2996 315.42ZM33.2996 317.78C34.2796 319.9 42.8196 320.66 43.3996 317.28C43.7996 318.84 43.3996 317.28 45.7396 326.96C41.1596 333.54 32.2596 337.96 29.7396 339.14C29.9996 337.4 31.1796 330.12 33.2396 317.78H33.2996ZM27.5596 351.58C30.1996 351.06 44.4196 347.86 48.2196 337.58C48.8996 340.52 50.2196 345.7 50.5596 347.58C40.9996 364.94 27.7196 363.58 25.4796 363.34C25.9996 359.74 26.7796 355.7 27.4996 351.58H27.5596ZM58.3996 383.7H43.1996C33.3996 383.7 21.3196 383.82 11.5596 383.92L17.6796 369.22L23.5796 369.06C21.8196 380.3 21.7996 379.78 22.1996 379.84C22.5996 379.9 22.4596 379.84 23.7796 372.58C40.5796 375.28 51.5396 363.36 53.5396 360.48L57.9996 379.36C58.0067 379.397 58.0213 379.433 58.0424 379.464C58.0635 379.495 58.0908 379.522 58.1226 379.543C58.1544 379.563 58.19 379.577 58.2273 379.584C58.2646 379.59 58.3028 379.589 58.3396 379.58C58.3768 379.573 58.4122 379.558 58.4436 379.537C58.475 379.516 58.5018 379.489 58.5223 379.457C58.5429 379.425 58.5568 379.39 58.5632 379.352C58.5696 379.315 58.5684 379.277 58.5596 379.24C58.5596 379.24 57.7396 375.36 56.5596 369.52L62.5596 369.72L64.3396 383.72L58.3996 383.7ZM140.36 110.9C140.428 111.053 140.509 111.2 140.6 111.34C140.716 111.467 140.851 111.575 141 111.66C141.147 111.764 141.309 111.845 141.48 111.9C141.646 111.964 141.822 111.998 142 112C142.178 112.03 142.361 112.03 142.54 112C142.64 111.97 142.735 111.922 142.82 111.86C143.016 111.735 143.192 111.58 143.34 111.4C143.373 111.383 143.402 111.36 143.426 111.332C143.45 111.303 143.468 111.271 143.479 111.235C143.49 111.2 143.494 111.163 143.491 111.126C143.488 111.089 143.477 111.053 143.46 111.02C143.429 110.955 143.375 110.904 143.308 110.878C143.241 110.852 143.166 110.853 143.1 110.88H142.78C142.649 110.855 142.521 110.815 142.4 110.76H141.9L141.56 110.62H141.42C141.2 110.522 140.972 110.442 140.74 110.38C140.698 110.315 140.634 110.269 140.56 110.25C140.485 110.232 140.406 110.242 140.34 110.28C140.292 110.332 140.265 110.4 140.265 110.47C140.265 110.541 140.292 110.608 140.34 110.66C140.344 110.74 140.35 110.82 140.36 110.9V110.9ZM139.68 103.58C139.754 103.558 139.822 103.521 139.881 103.47C139.939 103.42 139.986 103.358 140.018 103.287C140.05 103.217 140.067 103.141 140.067 103.064C140.068 102.987 140.051 102.91 140.02 102.84C139.9 102.46 139.78 102.1 139.68 101.72C139.646 101.561 139.552 101.42 139.419 101.327C139.285 101.235 139.121 101.196 138.96 101.22C138.886 101.241 138.817 101.276 138.757 101.323C138.697 101.371 138.647 101.43 138.61 101.497C138.572 101.564 138.549 101.637 138.54 101.713C138.532 101.789 138.538 101.867 138.56 101.94C138.658 102.353 138.779 102.76 138.92 103.16C138.97 103.313 139.077 103.441 139.218 103.519C139.358 103.597 139.523 103.618 139.68 103.58V103.58Z" fill="#C76E52"/>
</svg>
